<?xml version="1.0" standalone="no"?>
<!DOCTYPE svg PUBLIC "-//W3C//DTD SVG 20010904//EN"
        "http://www.w3.org/TR/2001/REC-SVG-20010904/DTD/svg10.dtd">
<svg version="1.0" xmlns="http://www.w3.org/2000/svg"
     width="100.000000pt" height="100.000000pt" viewBox="0 0 100.000000 100.000000"
     preserveAspectRatio="xMidYMid meet">

    <g transform="translate(0.000000,100.000000) scale(0.100000,-0.100000)"
       fill="currentColor" stroke="none">
        <path d="M405 923 c-97 -35 -162 -102 -190 -196 -33 -110 -12 -199 70 -301
l55 -69 0 -118 c0 -106 2 -121 20 -139 11 -11 27 -20 36 -20 9 0 29 -13 44
-30 38 -41 82 -41 120 0 15 17 35 30 44 30 9 0 25 9 36 20 18 18 20 33 20 145
l0 124 45 53 c76 90 90 122 90 213 0 91 -20 146 -74 208 -71 81 -213 117 -316
80z m210 -51 c80 -41 133 -118 142 -206 7 -71 -10 -126 -60 -186 -65 -80 -77
-107 -77 -177 l0 -63 -120 0 -120 0 0 61 c0 69 -7 85 -67 154 -133 153 -74
373 117 436 41 14 142 3 185 -19z m3 -709 l-3 -38 -115 0 -115 0 -3 38 -3 37
121 0 121 0 -3 -37z m-93 -93 c-3 -5 -15 -10 -25 -10 -10 0 -22 5 -25 10 -4 6
7 10 25 10 18 0 29 -4 25 -10z"/>
        <path d="M404 629 c-3 -6 12 -30 35 -53 l41 -42 0 -127 c0 -120 1 -127 20
-127 19 0 20 7 20 127 l0 127 42 43 c33 34 39 46 30 55 -9 9 -21 3 -52 -27
l-40 -39 -38 37 c-41 40 -47 43 -58 26z"/>
    </g>
</svg>
