<?xml version="1.0" standalone="no"?>
<!DOCTYPE svg PUBLIC "-//W3C//DTD SVG 20010904//EN"
        "http://www.w3.org/TR/2001/REC-SVG-20010904/DTD/svg10.dtd">
<svg version="1.0" xmlns="http://www.w3.org/2000/svg"
     width="100.000000pt" height="100.000000pt" viewBox="0 0 100.000000 100.000000"
     preserveAspectRatio="xMidYMid meet">

    <g transform="translate(0.000000,100.000000) scale(0.100000,-0.100000)"
       fill="#000000" stroke="none">
        <path d="M405 923 c-97 -35 -162 -102 -190 -196 -33 -110 -12 -199 70 -300
l55 -68 0 -120 c0 -106 2 -121 20 -139 11 -11 27 -20 36 -20 9 0 29 -13 44
-30 38 -41 82 -41 120 0 15 17 35 30 44 30 9 0 25 9 36 20 18 18 20 33 20 145
l0 124 45 53 c76 90 90 122 90 213 0 91 -20 146 -74 208 -71 81 -213 117 -316
80z m210 -51 c84 -43 135 -121 143 -217 6 -74 -15 -127 -76 -196 -52 -58 -62
-85 -62 -160 l0 -59 -120 0 -120 0 0 61 c0 69 -7 85 -67 154 -133 153 -74 373
117 436 41 14 142 3 185 -19z m3 -709 l-3 -38 -115 0 -115 0 -3 38 -3 37 121
0 121 0 -3 -37z m-93 -93 c-3 -5 -15 -10 -25 -10 -10 0 -22 5 -25 10 -4 6 7
10 25 10 18 0 29 -4 25 -10z"/>
        <path d="M404 629 c-3 -6 12 -30 35 -53 l41 -42 0 -127 c0 -120 1 -127 20
-127 19 0 20 7 20 127 l0 127 42 43 c33 34 39 46 30 55 -9 9 -21 3 -52 -27
l-40 -39 -38 37 c-41 40 -47 43 -58 26z"/>
        <path d="M75 810 c-6 -10 45 -40 70 -40 25 0 17 18 -15 35 -34 17 -47 19 -55
5z"/>
        <path d="M868 804 c-31 -16 -37 -34 -13 -34 25 0 76 30 70 40 -8 14 -25 12
-57 -6z"/>
        <path d="M14 649 c-3 -6 0 -15 7 -20 19 -12 90 -11 109 1 13 9 13 11 0 20 -21
13 -107 13 -116 -1z"/>
        <path d="M870 650 c-13 -9 -13 -11 0 -20 19 -12 90 -13 109 -1 7 5 10 14 7 20
-9 14 -95 14 -116 1z"/>
        <path d="M96 494 c-19 -11 -25 -19 -18 -26 13 -13 82 11 82 29 0 17 -28 16
-64 -3z"/>
        <path d="M840 497 c0 -18 69 -42 82 -29 7 7 0 15 -20 26 -38 19 -62 21 -62 3z"/>
    </g>
</svg>
